<svg width="34" height="34" viewBox="0 0 34 34" fill="none" xmlns="http://www.w3.org/2000/svg">
<path d="M28.7442 4.33533L18.5654 11.8953L20.4477 7.435L28.7442 4.33533Z" fill="#E2761B" stroke="#E2761B" stroke-linecap="round" stroke-linejoin="round"/>
<path d="M5.24561 4.33533L15.3426 11.9669L13.5523 7.435L5.24561 4.33533Z" fill="#E4761B" stroke="#E4761B" stroke-linecap="round" stroke-linejoin="round"/>
<path d="M25.081 21.8592L22.3701 26.0125L28.1705 27.6084L29.838 21.9513L25.081 21.8592Z" fill="#E4761B" stroke="#E4761B" stroke-linecap="round" stroke-linejoin="round"/>
<path d="M4.17139 21.9513L5.82864 27.6084L11.629 26.0125L8.91808 21.8592L4.17139 21.9513Z" fill="#E4761B" stroke="#E4761B" stroke-linecap="round" stroke-linejoin="round"/>
<path d="M11.3014 14.8415L9.68506 17.2865L15.4445 17.5422L15.2399 11.3531L11.3014 14.8415Z" fill="#E4761B" stroke="#E4761B" stroke-linecap="round" stroke-linejoin="round"/>
<path d="M22.6881 14.8415L18.6984 11.2814L18.5654 17.5422L24.3147 17.2864L22.6881 14.8415Z" fill="#E4761B" stroke="#E4761B" stroke-linecap="round" stroke-linejoin="round"/>
<path d="M11.6287 26.0126L15.0864 24.3246L12.0992 21.9922L11.6287 26.0126Z" fill="#E4761B" stroke="#E4761B" stroke-linecap="round" stroke-linejoin="round"/>
<path d="M18.9026 24.3246L22.3705 26.0126L21.8897 21.9922L18.9026 24.3246Z" fill="#E4761B" stroke="#E4761B" stroke-linecap="round" stroke-linejoin="round"/>
<path d="M22.3703 26.0126L18.9023 24.3246L19.1786 26.5854L19.1479 27.5368L22.3703 26.0126Z" fill="#D7C1B3" stroke="#D7C1B3" stroke-linecap="round" stroke-linejoin="round"/>
<path d="M11.6287 26.0126L14.8511 27.5368L14.8306 26.5854L15.0864 24.3246L11.6287 26.0126Z" fill="#D7C1B3" stroke="#D7C1B3" stroke-linecap="round" stroke-linejoin="round"/>
<path d="M11.6287 26.0126L12.1197 21.8593L8.91772 21.9514L11.6287 26.0126Z" fill="#CD6116" stroke="#CD6116" stroke-linecap="round" stroke-linejoin="round"/>
<path d="M21.8796 21.8593L22.3707 26.0126L25.0816 21.9514L21.8796 21.8593Z" fill="#CD6116" stroke="#CD6116" stroke-linecap="round" stroke-linejoin="round"/>
<path d="M24.3132 17.2865L18.564 17.5422L19.0959 20.4987L19.945 18.7187L21.991 19.6496L24.3132 17.2865Z" fill="#CD6116"/>
<path d="M12.0175 19.6496L14.0635 18.7187L14.9023 20.4987L15.4445 17.5422L9.68506 17.2865L12.0175 19.6496Z" fill="#CD6116"/>
<path d="M9.68506 17.2865L12.0993 21.9922L12.0175 19.6496L9.68506 17.2865Z" fill="#E4751F" stroke="#E4751F" stroke-linecap="round" stroke-linejoin="round"/>
<path d="M21.9912 19.6496L21.8889 21.9922L24.3134 17.2865L21.9912 19.6496Z" fill="#E4751F" stroke="#E4751F" stroke-linecap="round" stroke-linejoin="round"/>
<path d="M15.4445 17.5422L14.9023 20.4987L15.5775 23.9871L15.731 19.3938L15.4445 17.5422Z" fill="#E4751F" stroke="#E4751F" stroke-linecap="round" stroke-linejoin="round"/>
<path d="M18.565 17.5422L18.2888 19.3836L18.4116 23.9871L19.097 20.4987L18.565 17.5422Z" fill="#E4751F" stroke="#E4751F" stroke-linecap="round" stroke-linejoin="round"/>
<path d="M14.9036 20.4987L12.0188 19.6496L14.0546 18.7187L14.9036 20.4987Z" fill="#233447" stroke="#233447" stroke-linecap="round" stroke-linejoin="round"/>
<path d="M19.0879 20.4987L19.937 18.7187L21.983 19.6496L19.0879 20.4987Z" fill="#233447" stroke="#233447" stroke-linecap="round" stroke-linejoin="round"/>
<path d="M19.0973 20.4987L18.4119 23.9871L18.9029 24.3247L21.89 21.9923L21.9923 19.6496L19.0973 20.4987Z" fill="#F6851B" stroke="#F6851B" stroke-linecap="round" stroke-linejoin="round"/>
<path d="M12.0183 19.6496L12.1002 21.9923L15.0873 24.3247L15.5783 23.9871L14.9032 20.4987L12.0183 19.6496Z" fill="#F6851B" stroke="#F6851B" stroke-linecap="round" stroke-linejoin="round"/>
<path d="M19.1477 27.5368L19.1784 26.5854L18.9226 26.3604H15.0659L14.8306 26.5854L14.8511 27.5368L11.6287 26.0126L12.754 26.9333L15.0352 28.5189H18.9533L21.2448 26.9333L22.3701 26.0126L19.1477 27.5368Z" fill="#C0AD9E" stroke="#C0AD9E" stroke-linecap="round" stroke-linejoin="round"/>
<path d="M18.9031 24.3246L18.412 23.9871H15.5783L15.0873 24.3246L14.8315 26.5855L15.0668 26.3604H18.9235L19.1793 26.5855L18.9031 24.3246Z" fill="#161616" stroke="#161616" stroke-linecap="round" stroke-linejoin="round"/>
<path d="M29.1734 12.3863L30.043 8.21248L28.7438 4.33533L18.9026 11.6395L22.6877 14.8415L28.0379 16.4067L29.2246 15.0256L28.7131 14.6573L29.5315 13.9106L28.8972 13.4195L29.7156 12.7955L29.1734 12.3863Z" fill="#763D16" stroke="#763D16" stroke-linecap="round" stroke-linejoin="round"/>
<path d="M3.9563 8.21248L4.82584 12.3863L4.27343 12.7955L5.09182 13.4195L4.4678 13.9106L5.28619 14.6573L4.77469 15.0256L5.95114 16.4067L11.3014 14.8415L15.0865 11.6395L5.24527 4.33533L3.9563 8.21248Z" fill="#763D16" stroke="#763D16" stroke-linecap="round" stroke-linejoin="round"/>
<path d="M28.0383 16.4067L22.6881 14.8415L24.3146 17.2865L21.8901 21.9923L25.0819 21.9513H29.8388L28.0383 16.4067Z" fill="#F6851B" stroke="#F6851B" stroke-linecap="round" stroke-linejoin="round"/>
<path d="M11.3017 14.8415L5.9514 16.4067L4.17139 21.9513H8.91808L12.0996 21.9923L9.68533 17.2865L11.3017 14.8415Z" fill="#F6851B" stroke="#F6851B" stroke-linecap="round" stroke-linejoin="round"/>
<path d="M18.5654 17.5421L18.903 11.6395L20.458 7.43497H13.5527L15.0872 11.6395L15.4453 17.5421L15.568 19.404L15.5783 23.987H18.412L18.4324 19.404L18.5654 17.5421Z" fill="#F6851B" stroke="#F6851B" stroke-linecap="round" stroke-linejoin="round"/>
</svg>
